<svg xmlns="http://www.w3.org/2000/svg" width="352" height="96" viewBox="0 0 352 96" role="img" aria-label="Medium — @rajdeep01">
  <rect width="352" height="96" fill="#0d1117"/>
  <rect x="1.5" y="1.5" width="349" height="93" rx="10" fill="#14181c" stroke="#262d34" stroke-width="1"/>

  <rect x="24" y="30" width="36" height="36" rx="8" fill="#000000" stroke="#30363d" stroke-width="1"/>
  <g transform="translate(33,39) scale(0.75)" fill="#ffffff">
    <path d="M13.54 12a6.8 6.8 0 0 1-6.77 6.82A6.8 6.8 0 0 1 0 12a6.8 6.8 0 0 1 6.77-6.82A6.8 6.8 0 0 1 13.54 12zM20.96 12c0 3.54-1.51 6.42-3.38 6.42-1.87 0-3.39-2.88-3.39-6.42s1.52-6.42 3.39-6.42 3.38 2.88 3.38 6.42M24 12c0 3.17-.53 5.75-1.19 5.75-.66 0-1.19-2.58-1.19-5.75s.53-5.75 1.19-5.75C23.47 6.25 24 8.83 24 12z"/>
  </g>

  <text x="74" y="43"
        font-family="ui-monospace, 'JetBrains Mono', SFMono-Regular, Menlo, Consolas, monospace"
        font-size="10" letter-spacing="1.7" fill="#7d8590">WRITING</text>
  <text x="74" y="66"
        font-family="ui-monospace, 'JetBrains Mono', SFMono-Regular, Menlo, Consolas, monospace"
        font-size="14" font-weight="700" fill="#e6edf3">@rajdeep01</text>

  <g stroke="#6e7681" stroke-width="1.6" stroke-linecap="round" stroke-linejoin="round" fill="none">
    <path d="M322 54 L332 44"/>
    <path d="M324.5 44 H332 V51.5"/>
  </g>
</svg>
